<svg width="30" height="30" viewBox="0 0 24 48" fill="none" xmlns="http://www.w3.org/2000/svg">
<path opacity="0.4" d="M9.99 41.98C14.4028 41.98 17.98 38.4028 17.98 33.99C17.98 29.5772 14.4028 26 9.99 26C5.57724 26 2 29.5772 2 33.99C2 38.4028 5.57724 41.98 9.99 41.98Z" fill="#34CAA5"/>
<path d="M21.9701 39.99C21.9701 43.29 19.2901 45.97 15.9901 45.97C13.9501 45.97 12.1601 44.95 11.0801 43.4C15.4401 42.91 18.9101 39.44 19.4001 35.08C20.9501 36.16 21.9701 37.95 21.9701 39.99Z" fill="#34CAA5"/>
<path d="M11.45 33.71L9.05 32.87C8.81 32.79 8.76 32.77 8.76 32.42C8.76 32.16 8.94 31.95 9.17 31.95H10.67C10.99 31.95 11.25 32.24 11.25 32.6C11.25 33.01 11.59 33.35 12 33.35C12.41 33.35 12.75 33.01 12.75 32.6C12.75 31.45 11.86 30.51 10.75 30.46V30.41C10.75 30 10.41 29.66 10 29.66C9.59 29.66 9.25 29.99 9.25 30.41V30.46H9.16C8.11 30.46 7.25 31.34 7.25 32.43C7.25 33.38 7.67 33.99 8.54 34.29L10.95 35.13C11.19 35.21 11.24 35.23 11.24 35.58C11.24 35.84 11.06 36.05 10.83 36.05H9.33C9.01 36.05 8.75 35.76 8.75 35.4C8.75 34.99 8.41 34.65 8 34.65C7.59 34.65 7.25 34.99 7.25 35.4C7.25 36.55 8.14 37.49 9.25 37.54V37.6C9.25 38.01 9.59 38.35 10 38.35C10.41 38.35 10.75 38.01 10.75 37.6V37.55H10.84C11.89 37.55 12.75 36.67 12.75 35.58C12.75 34.63 12.32 34.02 11.45 33.71Z" fill="#34CAA5"/>
</svg>
